<?xml version="1.0" standalone="no"?>
<!DOCTYPE svg PUBLIC "-//W3C//DTD SVG 20010904//EN"
 "http://www.w3.org/TR/2001/REC-SVG-20010904/DTD/svg10.dtd">
<svg version="1.0" xmlns="http://www.w3.org/2000/svg"
 width="579.000000pt" height="544.000000pt" viewBox="0 0 579.000000 544.000000"
 preserveAspectRatio="xMidYMid meet">

<g transform="translate(0.000000,544.000000) scale(0.100000,-0.100000)"
fill="#000000" stroke="none">
<path d="M0 2720 l0 -2720 2895 0 2895 0 0 2720 0 2720 -2895 0 -2895 0 0
-2720z m2745 2250 c329 -24 608 -102 892 -250 107 -56 256 -147 298 -181 11
-10 54 -44 95 -77 106 -85 294 -280 376 -392 233 -315 380 -671 433 -1045 39
-274 15 -662 -56 -900 -56 -192 -76 -242 -160 -414 -50 -103 -129 -242 -160
-281 -7 -8 -33 -43 -58 -77 -246 -332 -635 -623 -1010 -756 -196 -70 -243 -83
-440 -119 -100 -18 -157 -22 -345 -22 -218 0 -290 6 -460 40 -276 55 -603 195
-832 357 -207 146 -404 336 -538 522 -24 33 -46 62 -50 65 -4 3 -9 12 -13 20
-4 8 -18 33 -31 55 -103 167 -166 304 -231 500 -158 483 -149 1000 26 1478 76
205 203 434 342 614 26 34 94 111 152 171 386 403 904 649 1456 691 151 12
161 12 314 1z"/>
<path d="M3785 4140 c-11 -5 -59 -20 -106 -34 -83 -25 -86 -27 -97 -63 -7 -21
-37 -69 -67 -108 -31 -38 -67 -83 -80 -100 -174 -220 -179 -226 -151 -162 8
18 31 79 51 137 21 58 51 129 67 159 16 29 27 55 25 57 -2 3 -66 -13 -143 -34
l-139 -38 -16 -64 c-9 -36 -45 -141 -79 -235 -34 -93 -68 -190 -77 -215 -8
-25 -19 -54 -24 -65 -5 -11 -20 -54 -35 -95 -36 -104 -73 -198 -95 -242 -24
-47 -24 -62 -1 -53 17 7 118 36 137 39 6 1 15 4 20 7 6 3 31 12 57 19 47 12
54 21 64 85 2 11 22 70 45 130 28 77 52 124 79 155 l39 45 1 -173 0 -174 33 7
c43 9 259 74 265 80 3 2 0 30 -6 62 -6 32 -14 164 -18 293 l-6 235 53 66 c134
163 193 230 220 250 40 28 29 49 -16 29z"/>
<path d="M3065 3932 c-5 -5 -38 -15 -72 -22 -54 -11 -63 -16 -63 -34 0 -12
-18 -73 -41 -136 -22 -63 -56 -158 -74 -210 -19 -52 -50 -140 -70 -195 -20
-55 -43 -121 -52 -148 -9 -26 -17 -46 -18 -45 -1 2 2 107 6 233 11 340 12 435
6 442 -3 3 -50 -8 -104 -25 -54 -17 -128 -39 -165 -48 -62 -16 -68 -21 -68
-44 0 -14 -14 -63 -31 -110 -17 -47 -43 -121 -59 -165 -16 -44 -49 -138 -75
-210 -26 -71 -62 -173 -80 -225 -41 -116 -58 -156 -84 -194 -11 -17 -18 -33
-16 -37 3 -4 37 3 77 15 l72 22 12 50 c11 46 27 92 138 399 26 72 62 173 81
225 l33 95 -5 -155 c-2 -85 -8 -238 -13 -340 -5 -102 -5 -189 -1 -193 5 -5 35
-1 67 8 125 35 200 57 225 67 28 10 27 7 124 278 19 52 50 138 68 190 19 52
62 172 96 265 34 94 71 183 82 198 20 28 24 67 4 49z"/>
<path d="M2128 3659 c-70 -20 -132 -40 -137 -44 -6 -3 -11 -16 -11 -29 0 -24
-35 -131 -130 -391 -34 -93 -70 -192 -80 -220 -55 -156 -91 -246 -109 -276
-37 -60 -37 -60 131 -8 54 17 106 31 117 32 14 1 21 11 26 42 7 48 8 51 125
375 51 140 96 266 100 280 29 87 73 198 91 227 12 19 18 38 13 42 -5 4 -66 -9
-136 -30z"/>
<path d="M1700 3536 c-105 -32 -290 -85 -385 -109 -80 -21 -99 -32 -90 -54 8
-22 -46 -183 -199 -592 -25 -69 -46 -129 -46 -133 0 -5 -7 -24 -15 -44 -8 -19
-15 -38 -15 -42 -1 -4 -14 -31 -31 -60 -33 -60 -31 -74 9 -61 37 12 170 50
185 53 53 11 67 20 67 40 0 24 8 52 63 211 l35 99 53 18 c30 10 90 28 134 39
100 26 174 67 221 124 70 86 191 418 177 488 -6 28 -35 48 -71 47 -9 -1 -51
-11 -92 -24z m-110 -193 c0 -25 -78 -237 -95 -258 -12 -16 -43 -33 -82 -44
-74 -22 -75 -20 -40 67 13 31 34 89 47 129 l24 72 51 12 c27 6 57 15 65 20 19
11 30 11 30 2z"/>
<path d="M4060 3266 c-257 -74 -290 -86 -290 -107 0 -10 -32 -106 -70 -212
-39 -105 -93 -255 -121 -332 -28 -77 -60 -155 -71 -172 -19 -32 -19 -33 -1
-33 10 0 65 14 123 31 58 17 143 41 190 53 47 13 101 30 121 38 82 35 140 124
209 323 93 265 106 300 111 310 8 15 11 93 4 116 -9 28 -68 24 -205 -15z m-31
-223 c-42 -122 -118 -332 -134 -370 -11 -26 -23 -35 -66 -47 -66 -20 -71 -20
-59 2 10 17 41 101 121 331 22 62 44 122 50 132 9 19 55 36 96 38 22 1 22 1
-8 -86z"/>
<path d="M3400 3076 c-104 -31 -105 -31 -111 -66 -5 -30 -118 -355 -179 -515
-11 -27 -29 -77 -41 -110 -12 -33 -29 -70 -37 -83 -8 -12 -12 -25 -9 -28 3 -4
105 22 226 57 l220 62 22 56 c13 31 29 65 36 77 19 30 6 35 -30 14 -39 -23
-195 -75 -203 -68 -3 3 2 23 10 44 8 22 43 118 76 214 34 96 65 184 70 195 26
59 70 171 70 177 0 10 2 11 -120 -26z"/>
<path d="M3000 2959 c-216 -62 -246 -71 -285 -81 -50 -13 -52 -15 -58 -58 -7
-48 -18 -93 -27 -105 -5 -5 -13 -26 -18 -45 -6 -19 -27 -80 -47 -135 -20 -55
-50 -136 -65 -180 -16 -44 -45 -120 -65 -169 -19 -49 -34 -91 -31 -93 5 -5 61
9 159 39 55 17 67 25 67 42 0 12 20 79 45 149 25 71 45 130 45 132 0 10 33 35
45 35 15 0 14 -55 -6 -207 -5 -40 -6 -78 -4 -85 4 -10 31 -5 115 21 l110 35 0
116 c0 163 5 184 46 203 32 16 65 65 85 127 4 14 21 63 38 109 17 46 31 103
31 126 0 66 -21 69 -180 24z m-40 -146 c0 -5 -11 -39 -25 -76 -25 -73 -42 -92
-90 -102 -16 -4 -38 -9 -48 -11 -15 -5 -14 2 9 63 14 37 28 76 31 86 3 9 17
20 32 23 14 3 37 10 51 14 33 11 40 12 40 3z"/>
<path d="M2315 2761 c-88 -25 -172 -54 -186 -64 -64 -43 -122 -145 -181 -317
-16 -47 -33 -94 -38 -105 -22 -46 -72 -210 -77 -254 -4 -36 -1 -51 12 -64 23
-24 41 -22 173 18 64 20 124 37 132 39 152 29 216 108 310 386 18 52 45 129
61 170 37 96 53 179 39 214 -14 37 -53 34 -245 -23z m35 -131 c0 -13 -38 -127
-56 -167 -8 -17 -14 -35 -14 -40 0 -23 -93 -250 -108 -264 -22 -20 -109 -52
-121 -45 -7 5 11 70 42 146 4 8 27 73 51 143 65 185 73 199 126 219 52 19 80
22 80 8z"/>
<path d="M1973 2663 c-37 -11 -53 -21 -53 -32 0 -9 -43 -104 -96 -211 -53
-107 -100 -206 -105 -219 -20 -51 -15 -9 18 149 50 243 51 250 44 254 -3 2
-50 -11 -104 -28 l-98 -31 -68 -140 c-38 -77 -90 -184 -116 -237 -26 -54 -48
-98 -50 -98 -1 0 4 28 11 63 25 109 45 201 55 247 5 25 16 62 24 84 9 21 15
40 13 41 -2 1 -54 -11 -115 -28 -113 -30 -113 -30 -113 -61 -1 -17 -11 -83
-24 -146 -13 -63 -32 -153 -41 -200 -9 -47 -23 -114 -31 -150 -8 -36 -16 -74
-18 -85 -4 -29 -17 -87 -23 -109 -5 -17 -1 -18 28 -12 19 3 64 16 101 27 l68
22 125 251 c68 138 125 249 125 246 0 -3 -5 -21 -10 -40 -6 -19 -13 -53 -16
-75 -2 -22 -9 -56 -14 -75 -9 -30 -50 -243 -50 -256 0 -7 36 -5 44 3 9 9 116
43 136 43 10 0 78 128 199 373 101 204 194 386 207 404 37 50 33 52 -53 26z"/>
<path d="M3986 2384 c-28 -27 -20 -70 19 -106 22 -19 32 -35 26 -41 -12 -12
-33 1 -25 15 4 5 -6 2 -20 -7 -16 -11 -25 -24 -22 -32 4 -8 6 -17 6 -19 0 -2
18 -4 39 -4 75 0 98 79 36 126 -35 26 -39 50 -7 40 24 -8 44 8 36 27 -8 22
-67 23 -88 1z"/>
<path d="M3800 2341 c-33 -12 -46 -23 -48 -39 -3 -16 1 -20 12 -16 14 5 16 -5
16 -76 0 -79 1 -81 23 -78 20 3 22 9 25 83 2 57 7 82 17 88 16 8 21 43 8 50
-5 2 -28 -4 -53 -12z"/>
<path d="M3589 2238 l-1 -53 -11 43 c-8 35 -14 42 -33 42 -24 0 -24 -1 -24
-106 0 -104 0 -105 22 -102 20 3 23 8 20 43 -2 30 0 36 7 25 6 -8 11 -23 11
-32 0 -12 8 -18 25 -18 25 0 25 0 25 95 0 52 1 98 3 103 1 4 -8 8 -20 10 -21
3 -23 -1 -24 -50z"/>
<path d="M3333 2217 l-33 -10 0 -105 0 -104 38 7 c44 8 57 18 48 40 -4 11 -12
14 -26 10 -32 -10 -27 33 6 45 32 13 30 47 -4 42 -31 -5 -29 25 3 40 14 6 24
18 23 26 -4 20 -16 22 -55 9z"/>
<path d="M3111 2129 c-6 -18 -11 -43 -11 -55 0 -41 -17 -26 -24 21 -6 40 -10
44 -32 43 -13 -1 -24 -5 -25 -8 -3 -19 -5 -196 -2 -202 2 -3 12 -4 23 -1 18 5
19 12 15 62 l-4 56 11 -43 c14 -56 38 -53 55 8 l12 45 -2 -50 c-1 -44 1 -50
18 -50 18 0 20 8 23 103 l3 102 -25 0 c-18 0 -27 -8 -35 -31z"/>
<path d="M2853 2083 c-7 -2 -14 -23 -14 -46 l-2 -42 -10 38 c-8 29 -15 37 -34
37 -23 0 -23 -2 -23 -109 0 -104 1 -109 20 -104 16 4 20 14 21 47 l2 41 10
-38 c9 -30 15 -37 31 -35 20 3 21 11 24 111 1 59 -1 107 -5 106 -4 0 -14 -3
-20 -6z"/>
<path d="M2607 2019 c-14 -9 -17 -26 -17 -114 0 -103 3 -113 27 -97 11 7 22
207 12 217 -2 2 -12 -1 -22 -6z"/>
<path d="M2388 1958 c-9 -8 -23 -50 -32 -102 -10 -48 -20 -94 -23 -102 -9 -24
41 -17 52 8 12 26 35 36 35 14 0 -14 31 -18 44 -5 7 7 -40 193 -50 196 -6 2
-17 -2 -26 -9z m22 -113 c0 -8 -4 -15 -10 -15 -5 0 -10 7 -10 15 0 8 5 15 10
15 6 0 10 -7 10 -15z"/>
<path d="M2180 1906 c-34 -9 -46 -17 -48 -34 -2 -15 2 -22 12 -22 13 0 16 -14
16 -78 0 -43 3 -82 6 -85 4 -3 15 -2 25 4 16 8 19 22 19 93 0 65 3 85 15 90
16 6 21 32 8 39 -5 2 -28 -1 -53 -7z"/>
<path d="M1925 1825 c-27 -26 -27 -30 -25 -115 1 -42 6 -59 21 -72 19 -16 24
-16 49 -3 22 11 31 25 39 63 11 51 5 118 -12 140 -15 19 -46 14 -72 -13z m45
-85 c0 -47 -3 -60 -15 -60 -11 0 -15 12 -15 44 0 49 7 76 21 76 5 0 9 -27 9
-60z"/>
<path d="M1725 1782 l-40 -12 1 -103 c1 -56 5 -101 8 -99 3 1 13 2 21 2 11 0
15 12 15 44 0 36 4 46 20 51 11 3 20 15 20 26 0 12 -7 19 -20 19 -28 0 -25 26
3 37 17 6 22 13 18 28 -6 19 -9 19 -46 7z"/>
<path d="M1517 1723 c-4 -3 -7 -25 -7 -47 0 -30 -3 -37 -10 -26 -5 8 -10 27
-10 41 0 23 -4 26 -25 21 -25 -4 -25 -5 -25 -114 0 -96 2 -109 16 -104 9 3 18
6 20 6 2 0 4 19 5 43 l1 42 12 -35 c7 -19 16 -34 19 -32 4 1 14 2 22 2 12 0
15 18 15 105 0 81 -3 105 -13 105 -8 0 -17 -3 -20 -7z"/>
<path d="M1290 1672 c0 -7 -7 -12 -15 -12 -12 0 -15 -18 -15 -106 0 -103 1
-105 22 -102 21 3 21 8 21 111 0 59 -3 110 -6 114 -4 3 -7 1 -7 -5z"/>
<path d="M3835 1267 c-14 -23 -30 -33 -54 -37 l-33 -5 26 -30 c21 -24 24 -36
19 -67 -6 -43 -3 -45 38 -21 27 16 31 16 58 0 41 -24 44 -22 36 21 -5 32 -2
41 19 62 34 31 33 37 -9 44 -25 5 -39 15 -50 36 -19 37 -25 37 -50 -3z"/>
<path d="M2474 823 c-16 -33 -24 -38 -56 -41 -45 -4 -46 -9 -12 -41 21 -20 25
-31 21 -58 -7 -41 0 -46 40 -26 29 13 34 13 55 -1 34 -24 40 -20 37 24 -3 32
2 43 24 62 36 31 34 36 -10 40 -32 3 -41 9 -59 41 l-21 39 -19 -39z"/>
</g>
</svg>
